<?xml version="1.0" encoding="UTF-8"?>
<svg id="Layer_2" data-name="Layer 2" xmlns="http://www.w3.org/2000/svg" viewBox="0 0 608.93 205.22">
  <defs>
    <style>
      .cls-1 {
        stroke-width: 0px;
      }
    </style>
  </defs>
  <g id="Layer_1-2" data-name="Layer 1">
    <g>
      <path class="cls-1" d="m35.23,11.13c58.17-9.45,127.74-6.74,127.74,47.97,0,36.52-31.58,39.07-79.7,38.57v2.74c68.16-.36,84.26,27.7,84.24,52.04.01,41.85-47.13,47.94-105.42,39.72-13.88-1.89-27.74-3.93-41.58-6.12C12.9,169.4-1.39,135.66.11,93.45,1.36,58.02,13.08,29.48,20.51,13.4c4.9-.78,9.81-1.53,14.72-2.27Zm50.19,65.93c4.29-.12,7.15-2.69,7.15-8.24,0-16.8-26.22-50.28-50.45-46.33,5.93,34.45,30.91,54.73,43.3,54.58Zm0,88.19c4.29.37,7.15-2.17,7.15-7.44,0-17.06-26.22-53.15-50.45-52.54,5.93,35.3,30.91,58.77,43.3,59.98Z"/>
      <path class="cls-1" d="m290.21,87.83c-7.24,1.46-13.83,2.34-19.31,2.35-57.49.17-28.3-75.55-40.81-75.33-2.85.11-11.19,3.87-11.19,25.11,0,22.32,9.43,51.17,27.64,48.29v14.05c-3.29.86-6.14,1.43-8.56,1.43-10.75-.02-16.23-6.54-18.42-6.53-.66,0-.88.57-.88,2.27,0,11.03,12.28,15.37,26.76,15.44,17.33.1,42.8-6.22,54.21-23.9v101.61c-8.34,10.15-30.73,13.05-45.65,12.55-37.97-1.22-80.91-24.34-80.9-72.05,0-38.61,27.38-45.38,45.36-46.4v-2.83c-24.78,2.93-40.98-16.5-40.98-39.56,0-30.43,28.69-42.81,64.89-44.22,23.26-.8,34.01,3.32,57.28,1.74-3.15,28.67-6.29,57.34-9.44,85.98Z"/>
      <path class="cls-1" d="m324.52,1.89c17.98,1.05,36.06,2.76,53.45,7.67,16.19,4.58,31.72,12.17,43.56,24.34,13.59,13.97,20.81,32.53,23.87,51.53,1.47,9.13,2.05,18.39,2.05,27.64,0,20.77-2.91,43.13-15.14,60.54-9.59,13.66-24.16,21.97-40.02,26.34-14.74,4.06-30.03,5.41-45.27,4.38-2.71-.18-37.42-4.79-37.25-5.65,9.02-44.66,16.75-148.25-.61-197.37.1.29,9.2.23,9.92.26,1.82.1,3.63.2,5.45.3Zm21.07,173.93c14.05,18.11,47.06,2.69,57.07-17.99,6.19-12.81,6.31-29.02,3-43.29-6.03-25.97-20.41-52.37-36.54-70.37-6.95-7.73-14.58-14.42-22.62-20.04-2.01-1.42-17.17-8.21-17.58-10.29,4.24,21.57,7.18,43.54,8.76,65.66,1.88,26.36-1.1,53.66,1.87,79.66.83,7.28,2.98,12.75,6.03,16.66Z"/>
      <path class="cls-1" d="m535.19,187.93c8.06-24.13,14.55-53.12,15.89-75.6-.75.02-1.49.03-2.24.05-6.27,29.85-19.46,78.54-50.42,82.52-30.75,3.61-42.23-33.55-42.23-77.61,0-77.67,35.1-116.47,81.01-109.6,29.59,4.86,77.98,33.64,71.05,169.41-24.29,4.11-48.66,7.72-73.07,10.82Zm12.76-95.96c0-40.05-16.03-69.84-25.43-71.05-8.78-1.14-26.37,23.29-26.37,74.19,0,26.61,4.85,50.78,17.89,49.93,16.37-1.33,33.91-36.43,33.91-53.07Z"/>
    </g>
  </g>
</svg>