<?xml version="1.0" encoding="UTF-8"?>
<svg id="Layer_2" data-name="Layer 2" xmlns="http://www.w3.org/2000/svg" viewBox="0 0 469.97 415.34">
  <defs>
    <style>
      .cls-1 {
        stroke-width: 0px;
      }
    </style>
  </defs>
  <g id="Layer_1-2" data-name="Layer 1">
    <g>
      <path class="cls-1" d="m77.67,9.29C205.9-11.55,359.28-5.57,359.28,115.04c.02,80.51-69.61,86.13-175.69,85.03v6.04c150.26-.79,185.76,61.06,185.71,114.72.02,92.25-103.91,105.69-232.41,87.57-30.59-4.16-61.15-8.65-91.66-13.49C28.43,358.2-3.06,283.83.24,190.77,3,112.66,28.83,49.75,45.22,14.3c10.81-1.71,21.63-3.38,32.45-5.01Zm110.65,145.35c9.45-.27,15.75-5.94,15.76-18.18,0-37.03-57.79-110.83-111.21-102.14,13.08,75.94,68.14,120.65,95.46,120.32Zm0,194.42c9.45.81,15.75-4.78,15.76-16.41,0-37.61-57.79-117.16-111.21-115.82,13.08,77.81,68.14,129.56,95.46,132.23Z"/>
      <path class="cls-1" d="m469.97,204.6c-80.85,4.9-84.82,8.87-89.72,89.72-4.9-80.85-8.87-84.82-89.72-89.72,80.85-4.9,84.82-8.87,89.72-89.72,4.9,80.85,8.87,84.82,89.72,89.72Z"/>
    </g>
  </g>
</svg>