<?xml version="1.0" encoding="UTF-8" standalone="no"?>
<svg
   id="Layer_2"
   data-name="Layer 2"
   viewBox="0 0 84331.422 74528.61"
   version="1.1"
   width="84331.422"
   height="74528.609"
   xmlns="http://www.w3.org/2000/svg"
   xmlns:svg="http://www.w3.org/2000/svg">
  <defs
     id="defs1">
    <style
       id="style1">
      .cls-1 {
        stroke-width: 0px;
      }
    </style>
  </defs>
  <g
     id="Layer_1-2"
     data-name="Layer 1"
     transform="translate(-255850.59,-52507.05)">
    <g
       id="g2">
      <path
         class="cls-1"
         d="m 77.67,9.29 c 128.23,-20.84 281.61,-14.86 281.61,105.75 0.02,80.51 -69.61,86.13 -175.69,85.03 v 6.04 C 333.85,205.32 369.35,267.17 369.3,320.83 369.32,413.08 265.39,426.52 136.89,408.4 106.3,404.24 75.74,399.75 45.23,394.91 28.43,358.2 -3.06,283.83 0.24,190.77 3,112.66 28.83,49.75 45.22,14.3 56.03,12.59 66.85,10.92 77.67,9.29 Z m 110.65,145.35 c 9.45,-0.27 15.75,-5.94 15.76,-18.18 0,-37.03 -57.79,-110.83 -111.21,-102.14 13.08,75.94 68.14,120.65 95.46,120.32 z m 0,194.42 c 9.45,0.81 15.75,-4.78 15.76,-16.41 0,-37.61 -57.79,-117.16 -111.21,-115.82 13.08,77.81 68.14,129.56 95.46,132.23 z"
         id="path1" />
      <path
         class="cls-1"
         d="m 723.83773,216.13944 c -80.85,4.9 -84.82,8.87 -89.72,89.72 -4.9,-80.85 -8.87,-84.82 -89.72,-89.72 80.85,-4.9 84.82,-8.87 89.72,-89.72 4.9,80.85 8.87,84.82 89.72,89.72 z"
         id="path2" />
    </g>
  </g>
</svg>
